<svg width="60" height="60" viewBox="0 0 60 60" fill="none" xmlns="http://www.w3.org/2000/svg">
<path d="M8.3623 17.3376C3.9723 23.6451 4.5173 31.8526 7.8723 38.5551L8.1173 39.0301C8.1698 39.1301 8.2198 39.2351 8.2748 39.3326C8.3048 39.3926 8.3398 39.4501 8.3723 39.5051C8.53002 39.7959 8.69507 40.0827 8.8673 40.3651L9.0498 40.6651C9.21972 40.9439 9.3956 41.2189 9.5773 41.4901C9.75638 41.7594 9.94058 42.0253 10.1298 42.2876L10.2198 42.4101C10.3773 42.6301 10.5423 42.8476 10.7098 43.0626L10.8948 43.2976L11.3498 43.8551L11.5223 44.0601C11.7273 44.3026 11.9398 44.5451 12.1523 44.7826L12.1648 44.7951C12.1748 44.8051 12.1823 44.8101 12.1898 44.8226C12.3973 45.0501 12.6148 45.2751 12.8298 45.5001L13.0373 45.7076L13.5498 46.2101L13.7598 46.4101C13.9898 46.6276 14.2248 46.8401 14.4623 47.0501L14.4723 47.0601L14.5948 47.1626C14.8023 47.3451 15.0173 47.5251 15.2323 47.7001L15.4948 47.9101C15.9542 48.2784 16.4253 48.632 16.9073 48.9701C16.9798 49.0226 17.0498 49.0751 17.1248 49.1251L17.1848 49.1676C17.3748 49.3001 17.5698 49.4251 17.7623 49.5501C17.8448 49.6051 17.9273 49.6626 18.0148 49.7176C18.733 50.1759 19.4721 50.6006 20.2298 50.9901C20.3923 51.0751 20.5523 51.1601 20.7173 51.2426L20.8298 51.2976L21.0298 51.3951C21.2848 51.5151 21.5423 51.6376 21.7998 51.7526L21.9648 51.8251C22.2623 51.9551 22.5623 52.0801 22.8648 52.1976L23.0848 52.2851C23.4014 52.4081 23.7198 52.5265 24.0398 52.6401C24.3523 52.7501 24.6698 52.8526 24.9898 52.9501L25.2198 53.0201C25.5398 53.1176 25.8598 53.2326 26.1948 53.2951C47.4248 57.1651 53.5898 40.5401 53.5898 40.5401C48.4098 47.2851 39.2198 49.0651 30.5098 47.0851C30.1798 47.0101 29.8573 46.9076 29.5348 46.8126L29.2923 46.7401C28.6553 46.5432 28.0257 46.3231 27.4048 46.0801L27.1723 45.9901C26.8723 45.8726 26.5748 45.7476 26.2823 45.6201L26.1048 45.5426C25.8524 45.4294 25.6015 45.3128 25.3523 45.1926L25.1348 45.0876C24.9398 44.9926 24.7473 44.8901 24.5548 44.7926C24.4273 44.7251 24.2948 44.6601 24.1673 44.5876C23.9332 44.4621 23.7014 44.3321 23.4723 44.1976L23.2373 44.0676C22.9314 43.8875 22.6288 43.7016 22.3298 43.5101L22.0848 43.3476C21.8669 43.2075 21.651 43.0641 21.4373 42.9176L21.2298 42.7701C21.0248 42.6251 20.8198 42.4801 20.6198 42.3301C20.3428 42.1224 20.0694 41.9099 19.7998 41.6926L19.5523 41.4951C19.3223 41.3051 19.0923 41.1151 18.8673 40.9176C18.5972 40.6824 18.3313 40.4424 18.0698 40.1976C17.9998 40.1326 17.9323 40.0701 17.8673 40.0026C17.6909 39.8366 17.5175 39.6674 17.3473 39.4951L17.1448 39.2926C16.9293 39.0721 16.7176 38.8479 16.5098 38.6201L16.4798 38.5901C16.2608 38.3495 16.0457 38.1053 15.8348 37.8576L15.6673 37.6551C15.4506 37.3984 15.2389 37.1376 15.0323 36.8726C14.8495 36.637 14.6704 36.3986 14.4948 36.1576C9.6598 29.5626 7.9248 20.4651 11.7873 12.9951" fill="black"/>
<path d="M21.9848 12.0223C18.8098 16.5898 18.9848 22.7048 21.4598 27.5348C21.8748 28.3448 22.3424 29.1323 22.8624 29.8798C23.3399 30.5623 23.8648 31.3723 24.4973 31.9198C24.7273 32.1723 24.9649 32.4173 25.2074 32.6573L25.3974 32.8423C25.6324 33.0723 25.8723 33.2973 26.1248 33.5198L26.1524 33.5448L26.1598 33.5498C26.4373 33.7923 26.7199 34.0248 27.0099 34.2523L27.2049 34.4023C27.5037 34.634 27.8088 34.8574 28.1199 35.0723C28.2524 35.1648 28.3899 35.2523 28.5224 35.3398C28.5874 35.3823 28.6499 35.4273 28.7174 35.4673C28.9644 35.6268 29.2153 35.7802 29.4699 35.9273C29.6599 36.0373 29.8574 36.1448 30.0524 36.2523C30.1174 36.2898 30.1899 36.3248 30.2574 36.3598C30.3949 36.4298 30.5274 36.5023 30.6649 36.5673C30.966 36.7161 31.2702 36.8587 31.5774 36.9948L31.7624 37.0723C31.9949 37.1698 32.2274 37.2648 32.4649 37.3548L32.7574 37.4648C32.9724 37.5448 33.1849 37.6148 33.3974 37.6873L33.6899 37.7798C33.9924 37.8748 34.2974 37.9923 34.6149 38.0473C51.0049 40.7623 54.7849 28.1448 54.7849 28.1448C51.3749 33.0548 44.7699 35.3998 37.7224 33.5698C37.094 33.4072 36.4741 33.2137 35.8649 32.9898L35.5699 32.8823C35.2727 32.7688 34.9784 32.648 34.6874 32.5198C34.3979 32.3935 34.1111 32.261 33.8274 32.1223C33.6849 32.0523 33.5449 31.9773 33.4024 31.9048L33.1549 31.7773C32.7022 31.5312 32.2578 31.2702 31.8224 30.9948L31.6224 30.8623C31.1034 30.5244 30.6011 30.1615 30.1174 29.7748C27.0324 27.3398 24.5849 24.0098 23.4224 20.2373C22.2024 16.3223 22.4674 11.9298 24.5774 8.3623" fill="black"/>
<path d="M33.4478 8.05262C31.5753 10.8076 31.3903 14.2251 32.6878 17.2676C34.0578 20.4976 36.8653 23.0276 40.1403 24.2301C40.3331 24.3022 40.5282 24.3681 40.7253 24.4276C40.9178 24.4876 41.1053 24.5601 41.3078 24.5951C50.3578 26.3426 52.8103 19.9526 53.4628 19.0101C51.3128 22.1076 47.6978 22.8501 43.2678 21.7726C42.4604 21.5591 41.6745 21.2712 40.9203 20.9126C40.132 20.5322 39.3826 20.0759 38.6828 19.5501C34.7203 16.5401 32.2503 10.7976 34.8428 6.12012" fill="black"/>
</svg>
