<svg width="45" height="45" viewBox="0 0 45 45" fill="none" xmlns="http://www.w3.org/2000/svg">
<g clip-path="url(#clip0_313_219)">
<path d="M41.2497 9.55012C39.5747 6.11262 34.7497 3.30012 29.1372 4.93762C26.4553 5.71229 24.1154 7.3736 22.4997 9.65012C20.8841 7.3736 18.5441 5.71229 15.8622 4.93762C10.2372 3.32512 5.42471 6.11262 3.74971 9.55012C1.39971 14.3626 2.37471 19.7751 6.64971 25.6376C9.99971 30.2251 14.7872 34.8751 21.7372 40.2751C21.9569 40.4464 22.2274 40.5395 22.506 40.5395C22.7845 40.5395 23.0551 40.4464 23.2747 40.2751C30.2122 34.8876 35.0122 30.2751 38.3622 25.6376C42.6247 19.7751 43.5997 14.3626 41.2497 9.55012Z" fill="#F24E1E"/>
</g>
<defs>
<clipPath id="clip0_313_219">
<rect width="45" height="45" fill="white"/>
</clipPath>
</defs>
</svg>
