<svg width="60" height="60" viewBox="0 0 60 60" fill="none" xmlns="http://www.w3.org/2000/svg">
<path d="M22.3628 54.9998C20.3326 55.0142 18.3481 54.3977 16.6835 53.2355C15.0188 52.0734 13.7562 50.4229 13.0701 48.5121C12.3839 46.6014 12.3082 44.5247 12.8532 42.569C13.3983 40.6134 14.5373 38.8752 16.1128 37.5948C14.9809 36.6787 14.068 35.5212 13.4409 34.2069C12.8138 32.8926 12.4884 31.4548 12.4884 29.9986C12.4884 28.5424 12.8138 27.1046 13.4409 25.7903C14.068 24.476 14.9809 23.3185 16.1128 22.4023C14.5353 21.1231 13.3945 19.3851 12.8482 17.429C12.302 15.4728 12.3773 13.3952 13.0638 11.4837C13.7503 9.57228 15.014 7.92149 16.68 6.75984C18.346 5.5982 20.3319 4.98315 22.3628 4.99984H37.6378C39.6687 4.98315 41.6546 5.5982 43.3206 6.75984C44.9866 7.92149 46.2503 9.57228 46.9368 11.4837C47.6233 13.3952 47.6986 15.4728 47.1523 17.429C46.6061 19.3851 45.4653 21.1231 43.8878 22.4023C45.4648 23.682 46.6052 25.4202 47.1511 27.3763C47.6971 29.3325 47.6216 31.4099 46.9353 33.3213C46.2489 35.2327 44.9855 36.8836 43.3199 38.0456C41.6542 39.2076 39.6686 39.8232 37.6378 39.8073C35.7153 39.8097 33.834 39.2501 32.2253 38.1973V45.1973C32.214 47.8041 31.1694 50.2999 29.3206 52.1375C27.4717 53.9751 24.9695 55.0045 22.3628 54.9998ZM22.3078 39.8098C21.247 39.8266 20.2148 40.1565 19.3409 40.758C18.4671 41.3595 17.7904 42.2059 17.396 43.1908C17.0016 44.1756 16.9071 45.2551 17.1243 46.2936C17.3415 47.332 17.8607 48.2831 18.6167 49.0274C19.3728 49.7716 20.3319 50.2759 21.3736 50.4768C22.4153 50.6777 23.4932 50.5662 24.4717 50.1565C25.4503 49.7467 26.286 49.0569 26.8737 48.1737C27.4615 47.2905 27.7752 46.2532 27.7753 45.1923V39.8098H22.3053H22.3078ZM37.6403 24.6173C36.5769 24.6228 35.539 24.9431 34.6575 25.5378C33.7759 26.1325 33.0903 26.975 32.6872 27.959C32.284 28.943 32.1813 30.0244 32.3921 31.0667C32.6029 32.109 33.1177 33.0655 33.8715 33.8155C34.6253 34.5655 35.5844 35.0754 36.6278 35.2808C37.6711 35.4863 38.752 35.3781 39.7339 34.9699C40.7158 34.5618 41.5548 33.8719 42.1451 32.9873C42.7353 32.1028 43.0503 31.0632 43.0503 29.9998C43.045 28.5687 42.4721 27.1982 41.4573 26.1891C40.4426 25.18 39.0714 24.6147 37.6403 24.6173ZM22.3653 24.6173C20.9378 24.6097 19.5657 25.1695 18.5509 26.1735C17.5361 27.1775 16.9617 28.5436 16.954 29.9711C16.9464 31.3986 17.5062 32.7707 18.5102 33.7855C19.5142 34.8003 20.8803 35.3747 22.3078 35.3823H27.7753V24.6173H22.3653ZM32.2253 9.42484V20.1923H37.6353C39.0278 20.1988 40.3687 19.6659 41.3769 18.7053C42.385 17.7447 42.9821 16.431 43.0428 15.0398V16.1273V14.8073C43.0368 13.3777 42.4648 12.0087 41.4518 11C40.4388 9.99119 39.0674 9.42483 37.6378 9.42484H32.2253ZM22.3603 9.42484C20.9328 9.42484 19.5637 9.99193 18.5543 11.0013C17.5449 12.0108 16.9778 13.3798 16.9778 14.8073C16.9778 16.2349 17.5449 17.6039 18.5543 18.6133C19.5637 19.6228 20.9328 20.1898 22.3603 20.1898H27.7753V9.42484H22.3603Z" fill="black"/>
</svg>
