<svg width="60" height="60" viewBox="0 0 60 60" fill="none" xmlns="http://www.w3.org/2000/svg">
<path d="M3.75 3.75H56.25V56.25H3.75V3.75Z" fill="black"/>
<path d="M39.0166 44.7655C39.464 45.6741 40.1589 46.4378 41.0215 46.9686C41.884 47.4994 42.8789 47.7756 43.8916 47.7655C45.9354 47.7655 47.2423 46.7436 47.2423 45.328C47.2423 43.6405 45.8998 43.0368 43.6498 42.0524L42.416 41.5236C38.8535 40.0068 36.491 38.1074 36.491 34.0911C36.491 30.3918 39.3035 27.5736 43.7154 27.5736C45.1436 27.4705 46.5705 27.7901 47.8183 28.4927C49.066 29.1952 50.0792 30.2496 50.7316 31.5243L46.8748 33.9899C46.6236 33.3579 46.1861 32.8171 45.6206 32.4394C45.055 32.0617 44.3879 31.8648 43.7079 31.8749C43.4112 31.8452 43.1116 31.8776 42.8281 31.9701C42.5446 32.0626 42.2835 32.2131 42.0614 32.4121C41.8394 32.6111 41.6612 32.8541 41.5382 33.1258C41.4152 33.3974 41.3502 33.6917 41.3473 33.9899C41.3473 35.4693 42.2641 36.0693 44.381 36.9899L45.6148 37.5186C49.8073 39.3168 52.1773 41.1486 52.1773 45.268C52.1773 49.7099 48.6879 52.1436 44.0023 52.1436C42.1766 52.26 40.3562 51.8455 38.7609 50.9501C37.1656 50.0548 35.8635 48.717 35.0116 47.098L39.0166 44.7655ZM21.5885 45.193C22.3629 46.5674 23.0679 47.7299 24.7629 47.7299C26.3829 47.7299 27.4066 47.0961 27.4066 44.6305V27.8549H32.3398V44.6961C32.3398 49.8036 29.3398 52.1286 24.9729 52.1286C23.4293 52.213 21.8963 51.8283 20.5754 51.0252C19.2545 50.222 18.2076 49.0379 17.5723 47.6286L21.5885 45.193Z" fill="white"/>
</svg>
