<svg width="60" height="60" viewBox="0 0 60 60" fill="none" xmlns="http://www.w3.org/2000/svg">
<path fill-rule="evenodd" clip-rule="evenodd" d="M29.9996 1.00002C23.1094 0.994786 16.4425 3.44299 11.1931 7.90604C5.94376 12.3691 2.45498 18.5554 1.35175 25.3567C0.248528 32.158 1.60295 39.1298 5.1724 45.0234C8.74184 50.9169 14.2931 55.347 20.8316 57.52C22.2836 57.784 22.8116 56.888 22.8116 56.12C22.8116 55.432 22.7876 53.608 22.7716 51.188C14.7076 52.94 13.0036 47.3 13.0036 47.3C11.6836 43.948 9.78361 43.06 9.78361 43.06C7.15161 41.26 9.98361 41.296 9.98361 41.296C12.8956 41.5 14.4236 44.284 14.4236 44.284C17.0116 48.716 21.2116 47.436 22.8636 46.692C23.1276 44.82 23.8796 43.54 24.7036 42.816C18.2636 42.084 11.4956 39.596 11.4956 28.484C11.4537 25.6029 12.5239 22.8164 14.4836 20.704C14.1836 19.968 13.1876 17.024 14.7636 13.024C14.7636 13.024 17.2036 12.248 22.7396 16C25.1061 15.3565 27.5472 15.0283 29.9996 15.024C32.452 15.0286 34.8931 15.3568 37.2596 16C42.7956 12.248 45.2276 13.028 45.2276 13.028C46.8116 17.02 45.8156 19.968 45.5156 20.704C47.3756 22.732 48.4956 25.316 48.4956 28.484C48.4956 39.624 41.7156 42.076 35.2556 42.792C36.2956 43.688 37.2236 45.46 37.2236 48.164C37.2236 52.044 37.1876 55.168 37.1876 56.12C37.1876 56.896 37.7116 57.8 39.1836 57.516C45.7208 55.3403 51.2699 50.9081 54.8368 45.0135C58.4037 39.1189 59.7554 32.147 58.6498 25.3465C57.5442 18.546 54.0536 12.3612 48.8031 7.9001C43.5526 3.43896 36.8894 0.992887 29.9996 1.00002Z" fill="black"/>
</svg>
