<svg width="60" height="60" viewBox="0 0 60 60" fill="none" xmlns="http://www.w3.org/2000/svg">
<g clip-path="url(#clip0_40_181)">
<path d="M60.3224 58.5301L59.0524 57.3201C58.4468 56.5181 57.7699 55.7726 57.0299 55.0926L57.0174 55.0826C56.2707 54.4043 55.4949 53.7593 54.6899 53.1476C54.0449 52.7043 53.1582 52.1701 52.0299 51.5451C51.1143 51.1387 50.3846 50.4036 49.9849 49.4851L49.9749 49.4601L49.8549 49.4001C50.3849 49.3476 50.8699 49.2501 51.3349 49.1126L51.2774 49.1276L52.7024 48.7351C53.2924 48.5501 53.9749 48.4301 54.6824 48.4026H54.6974C55.4424 48.3726 56.1449 48.2526 56.8149 48.0551L56.7524 48.0701C57.0757 47.9901 57.4082 47.8993 57.7499 47.7976C58.0915 47.696 58.384 47.6051 58.6274 47.5251V47.1026C58.3857 46.741 58.0932 46.3276 57.7499 45.8626C57.4314 45.4276 57.0593 45.0344 56.6424 44.6926L56.6299 44.6826C55.5815 43.756 54.4957 42.8593 53.3724 41.9926C52.3193 41.1744 51.2254 40.4101 50.0949 39.7026L49.9249 39.6026C49.2729 39.1764 48.5824 38.8124 47.8624 38.5151L47.7774 38.4851C47.0307 38.1818 46.2949 37.8493 45.5699 37.4876C45.3087 37.3597 45.0347 37.26 44.7524 37.1901L44.7249 37.1851C44.4429 37.129 44.1877 36.9803 43.9999 36.7626L43.9974 36.7601C43.6427 36.2893 43.3448 35.7783 43.1099 35.2376L43.0899 35.1876C42.8482 34.6226 42.5865 34.0801 42.3049 33.5601C41.6999 32.3901 41.1149 31.201 40.5499 29.9926C39.9849 28.7843 39.4424 27.5743 38.9224 26.3626C38.5607 25.556 38.2282 24.7501 37.9249 23.9451C37.6181 23.1246 37.2321 22.3358 36.7724 21.5901L36.8049 21.6476C35.8086 19.9396 34.6969 18.3016 33.4774 16.7451L33.5474 16.8401C32.4315 15.4268 31.2123 14.0981 29.8999 12.8651L29.8799 12.8476C28.5892 11.6367 27.2267 10.5046 25.7999 9.45763L25.6774 9.37013C24.184 8.28513 22.5507 7.2168 20.7774 6.16513C20.0236 5.72547 19.2114 5.39469 18.3649 5.18263L18.2999 5.16763L15.5174 4.47263L13.9449 4.35263C13.4215 4.31263 12.8974 4.29263 12.3724 4.29263C12.0183 4.10734 11.6926 3.87247 11.4049 3.59513C11.1268 3.33064 10.832 3.0843 10.5224 2.85763L10.4974 2.84013C8.87342 1.90303 7.16304 1.12444 5.38987 0.515131L5.17737 0.450131C4.73639 0.197835 4.2443 0.0479634 3.73755 0.0116122C3.23079 -0.0247391 2.72235 0.0533615 2.24987 0.240131L2.27237 0.232631C1.80711 0.415085 1.3878 0.697863 1.04427 1.06083C0.700746 1.4238 0.441461 1.85804 0.284874 2.33263L0.277374 2.35763C0.012081 2.99471 -0.0741105 3.69216 0.0281092 4.37465C0.130329 5.05714 0.417074 5.69874 0.857374 6.23013L0.852374 6.22263C1.75904 7.43096 2.45404 8.38096 2.93737 9.07263C3.29904 9.55763 3.67237 10.0618 4.05737 10.5851C4.40987 11.0551 4.72237 11.5926 4.97487 12.1601L4.99487 12.2126C5.13487 12.5101 5.25737 12.8651 5.34737 13.2301L5.35487 13.2701C5.43487 13.6135 5.53571 13.9868 5.65737 14.3901C6.01904 15.3168 6.36154 16.2668 6.68487 17.2401C7.03737 18.3026 7.42737 19.2026 7.87987 20.0601L7.83237 19.9601C8.07404 20.4035 8.31654 20.8368 8.55987 21.2601C8.80321 21.6835 9.06487 22.0968 9.34487 22.5001C9.50366 22.7397 9.70846 22.9454 9.94737 23.1051L9.95487 23.1101C10.0801 23.1999 10.1832 23.3171 10.2564 23.4526C10.3296 23.5882 10.371 23.7387 10.3774 23.8926C10.0824 24.3308 9.89642 24.8356 9.83487 25.3601L9.83237 25.3751C9.75394 25.964 9.62599 26.5452 9.44987 27.1126L9.46987 27.0376C8.88179 28.8381 8.58554 30.7211 8.59237 32.6151C8.59237 33.2601 8.62487 33.8951 8.69237 34.5226L8.68487 34.4451C8.83487 36.8401 9.55737 39.0401 10.7149 40.9451L10.6799 40.8826C11.1724 41.6201 11.6999 42.2626 12.2824 42.8501C12.6208 43.2308 13.0766 43.4875 13.5776 43.5794C14.0785 43.6714 14.5959 43.5933 15.0474 43.3576L15.0349 43.3626C15.4681 43.2099 15.8461 42.9318 16.1208 42.5636C16.3954 42.1955 16.5544 41.7539 16.5774 41.2951V41.2901C16.6974 40.1051 16.8774 39.0451 17.1249 38.0101L17.0924 38.1776C17.1557 38.009 17.1879 37.8303 17.1874 37.6501L17.1824 37.5376V37.5426C17.1624 37.361 17.2732 37.1893 17.5149 37.0276V37.1476C17.7565 37.7126 18.0082 38.2768 18.2699 38.8401C18.5315 39.4035 18.8032 39.9676 19.0849 40.5326C19.8224 41.6551 20.6049 42.6351 21.4649 43.5376L21.4574 43.5301C22.3129 44.454 23.2565 45.2921 24.2749 46.0326L24.3299 46.0701C24.8599 46.4751 25.3249 46.9126 25.7449 47.3901L25.7549 47.4001C26.1499 47.8651 26.6224 48.2476 27.1549 48.5351L27.1799 48.5476V48.4876H27.2999C27.205 48.2753 27.0481 48.0967 26.8499 47.9751L26.8449 47.9726C26.6615 47.8715 26.4852 47.7579 26.3174 47.6326L26.3299 47.6401C25.9682 47.2785 25.5949 46.8751 25.2099 46.4301C24.8249 45.9851 24.4724 45.5618 24.1524 45.1601C23.3057 43.9901 22.4982 42.7676 21.7299 41.4926C20.9615 40.2176 20.2357 38.9218 19.5524 37.6051C19.229 36.9601 18.9165 36.2951 18.6149 35.6101C18.3132 34.9251 18.0207 34.2601 17.7374 33.6151C17.6091 33.353 17.5279 33.0704 17.4974 32.7801V32.7676C17.4906 32.6303 17.4484 32.4971 17.3748 32.381C17.3012 32.2649 17.1987 32.1698 17.0774 32.1051L17.0724 32.1026C16.7862 32.5947 16.4439 33.0519 16.0524 33.4651L16.0549 33.4626C15.6534 33.8857 15.33 34.3767 15.0999 34.9126L15.0874 34.9451C14.7132 35.8684 14.47 36.8395 14.3649 37.8301L14.3599 37.8776C14.2399 38.946 14.119 40.0443 13.9974 41.1726L13.8774 41.2326L13.8174 41.2926C13.5044 41.2299 13.2095 41.0978 12.9543 40.9062C12.699 40.7145 12.4899 40.4681 12.3424 40.1851L12.3374 40.1726C12.034 39.5876 11.7624 39.0126 11.5224 38.4476C10.8675 36.7341 10.5098 34.9215 10.4649 33.0876V33.0651C10.335 31.1056 10.5776 29.1393 11.1799 27.2701L11.1499 27.3801C11.2699 26.9368 11.5315 26.1901 11.9349 25.1401C12.3382 24.0901 12.419 23.3643 12.1774 22.9626C12.0581 22.5651 11.8284 22.2096 11.5149 21.9376L11.5124 21.9351C11.2136 21.6763 10.9337 21.3964 10.6749 21.0976L10.6674 21.0876C10.3857 20.681 10.114 20.2476 9.85237 19.7876C9.59071 19.3276 9.35904 18.8743 9.15737 18.4276C8.69185 17.3261 8.29607 16.1964 7.97237 15.0451L7.91737 14.8226C7.56166 13.5363 7.10525 12.2799 6.55237 11.0651L6.61737 11.2251C6.35873 10.6315 6.0315 10.0702 5.64237 9.55263L5.65737 9.57263C5.25071 9.0293 4.88737 8.51513 4.56737 8.03013C4.16071 7.5068 3.75737 7.00263 3.35737 6.51763C2.94055 6.01279 2.5832 5.46166 2.29237 4.87513L2.26987 4.82513C2.14196 4.56397 2.04223 4.28992 1.97237 4.00763L1.96737 3.98013C1.92442 3.83811 1.91313 3.6884 1.9343 3.54154C1.95546 3.39468 2.00857 3.25425 2.08987 3.13013L2.08737 3.13513C2.1141 2.99995 2.1772 2.87462 2.26987 2.77263C2.37109 2.68217 2.49442 2.62007 2.62737 2.59263H2.63237C2.82962 2.46471 3.05637 2.38949 3.29097 2.37417C3.52556 2.35886 3.76017 2.40394 3.97237 2.50513L3.96487 2.50263C4.51237 2.65763 4.95487 2.81263 5.38737 2.99013L5.29737 2.95763C6.06237 3.28096 6.76821 3.59346 7.41487 3.89513C8.15987 4.25013 8.79487 4.62513 9.39487 5.04263L9.34987 5.01263C9.67321 5.2143 9.99571 5.43596 10.3174 5.67763C10.639 5.9193 10.9815 6.1618 11.3449 6.40513H12.1924C12.8374 6.40513 13.5224 6.43596 14.2474 6.49763C14.9799 6.55513 15.6574 6.69263 16.3024 6.90763L16.2424 6.89013C17.4449 7.24763 18.4774 7.67013 19.4574 8.17763L19.3549 8.13013C20.3432 8.63346 21.2807 9.16763 22.1674 9.73263C23.6399 10.6501 24.9124 11.5901 26.1099 12.6176L26.0674 12.5826C27.3174 13.6526 28.4524 14.7501 29.5174 15.9101L29.5424 15.9401C30.5824 17.0751 31.5749 18.3076 32.4824 19.6001L32.5599 19.7176C33.3949 20.8976 34.2374 22.2626 34.9949 23.6776L35.0999 23.8901C35.3231 24.3239 35.5185 24.7715 35.6849 25.2301L35.7124 25.3126C35.874 25.776 36.0549 26.251 36.2549 26.7376C36.6982 27.746 37.1732 28.7635 37.6799 29.7901C38.1865 30.8168 38.6615 31.8151 39.1049 32.7851L40.4349 35.6876C40.9024 36.7026 41.4249 37.5776 42.0324 38.3851L42.0049 38.3476C42.5124 38.8901 43.1899 39.2701 43.9499 39.4026L43.9699 39.4051C44.8899 39.6351 45.6649 39.8951 46.4149 40.2026L46.2974 40.1601C46.6549 40.3226 47.1149 40.4951 47.5874 40.6476L47.6874 40.6751C48.2174 40.8376 48.6774 41.0526 49.0999 41.3226L49.0774 41.3101C49.8949 41.7676 50.5874 42.2176 51.2474 42.7076L51.1949 42.6701C51.8799 43.1735 52.5649 43.6485 53.2499 44.0951C53.5732 44.3368 54.1157 44.6893 54.8774 45.1526C55.639 45.616 56.0424 46.0493 56.0874 46.4526C54.5557 46.3995 53.0222 46.4723 51.5024 46.6701L51.6424 46.6551C50.3731 46.8199 49.1304 47.1476 47.9449 47.6301L48.0449 47.5951C47.7307 47.7284 47.4063 47.8362 47.0749 47.9176L47.0274 47.9276C46.8552 47.9524 46.6962 48.034 46.5757 48.1594C46.4552 48.2849 46.3801 48.4471 46.3624 48.6201C46.5149 48.8101 46.6374 49.0326 46.7199 49.2726L46.7249 49.2876C46.8099 49.5426 46.9124 49.7626 47.0374 49.9676L47.0299 49.9526C47.3274 50.4801 47.6474 50.9351 48.0074 51.3551L47.9974 51.3426C48.3499 51.7776 48.7474 52.1551 49.1874 52.4776L49.2049 52.4901C49.6115 52.8135 50.0349 53.146 50.4749 53.4876C50.8774 53.8026 51.3324 54.1126 51.8049 54.3926L51.8649 54.4251C52.5749 54.8601 53.3999 55.2751 54.2599 55.6226L54.3749 55.6626C55.3099 56.0376 56.1124 56.4726 56.8574 56.9901L56.8174 56.9626C57.3024 57.2443 57.7857 57.5568 58.2674 57.9001C58.749 58.2435 59.2124 58.576 59.6574 58.8976C59.8399 59.0776 59.9999 59.2776 60.1349 59.4951L60.1424 59.5076C60.3729 59.7736 60.6933 59.9453 61.0424 59.9901H61.0499V59.8701C60.8288 59.7028 60.6675 59.4688 60.5899 59.2026L60.5874 59.1926C60.5302 58.9519 60.4357 58.7217 60.3074 58.5101L60.3124 58.5201L60.3224 58.5301ZM13.8824 10.5176C13.559 10.5176 13.2565 10.5276 12.9749 10.5476C12.7001 10.5653 12.4287 10.6182 12.1674 10.7051L12.1899 10.6976V10.7576H12.3099C12.4715 10.9993 12.6749 11.271 12.9199 11.5726C13.1649 11.8743 13.3865 12.1668 13.5849 12.4501L14.5524 14.4451L14.6724 14.3851C14.9539 14.1825 15.1723 13.9042 15.3024 13.5826L15.3074 13.5701C15.4374 13.2226 15.5124 12.8176 15.5124 12.3976L15.5099 12.2626V12.2701C15.3965 12.1599 15.3049 12.0293 15.2399 11.8851L15.2374 11.8776L15.0349 11.4226C14.9052 11.2155 14.7198 11.0492 14.4999 10.9426L14.4924 10.9401C14.2677 10.8329 14.0618 10.6902 13.8824 10.5176Z" fill="black"/>
</g>
<defs>
<clipPath id="clip0_40_181">
<rect width="60" height="60" fill="white"/>
</clipPath>
</defs>
</svg>
