<svg width="60" height="60" viewBox="0 0 60 60" fill="none" xmlns="http://www.w3.org/2000/svg">
<g clip-path="url(#clip0_40_168)">
<path d="M23.9062 26.7185V17.4673H30.5812C34.23 17.4673 36.3637 19.181 36.3637 22.106C36.3637 25.1135 34.0988 26.7185 29.7488 26.7185H23.9062ZM23.9062 40.826H31.0237C35.4637 40.826 37.8113 39.026 37.8113 35.6623C37.8113 32.3435 35.3737 30.6073 30.7387 30.6073H23.9062V40.826Z" fill="black"/>
<path d="M15.0078 0C11.0296 0 7.21426 1.58035 4.40121 4.3934C1.58817 7.20644 0.0078125 11.0218 0.0078125 15V45C0.0078125 48.9782 1.58817 52.7936 4.40121 55.6066C7.21426 58.4196 11.0296 60 15.0078 60H45.0078C48.9861 60 52.8014 58.4196 55.6144 55.6066C58.4275 52.7936 60.0078 48.9782 60.0078 45V15C60.0078 11.0218 58.4275 7.20644 55.6144 4.3934C52.8014 1.58035 48.9861 0 45.0078 0L15.0078 0ZM18.9828 45V13.2938H31.7291C37.6803 13.2938 41.2653 16.3275 41.2653 21.2063C41.2653 24.5213 38.8278 27.4875 35.7041 28.0163V28.3913C39.9903 28.83 42.8441 31.8825 42.8441 36.015C42.8441 41.595 38.7791 45 32.0141 45H18.9828Z" fill="black"/>
</g>
<defs>
<clipPath id="clip0_40_168">
<rect width="60" height="60" fill="white"/>
</clipPath>
</defs>
</svg>
