<svg width="60" height="60" viewBox="0 0 60 60" fill="none" xmlns="http://www.w3.org/2000/svg">
<path d="M29.9998 56.2498C29.2916 56.25 28.5957 56.0638 27.9823 55.7098L21.5623 51.9091C20.6042 51.3729 21.0711 51.1835 21.3879 51.0729C22.407 50.7581 23.3826 50.3172 24.2923 49.7604C24.3685 49.7252 24.4523 49.7099 24.536 49.7162C24.6197 49.7224 24.7004 49.7499 24.7704 49.796L29.7036 52.7266C29.7954 52.7752 29.8978 52.8006 30.0017 52.8006C30.1056 52.8006 30.208 52.7752 30.2998 52.7266L49.5373 41.6229C49.6273 41.5689 49.7018 41.4925 49.7534 41.4012C49.805 41.3098 49.832 41.2066 49.8317 41.1016V18.8904C49.8318 18.7838 49.8044 18.679 49.7521 18.586C49.6999 18.4931 49.6246 18.4152 49.5336 18.3598L30.2961 7.26538C30.2054 7.21429 30.103 7.18745 29.9989 7.18745C29.8948 7.18745 29.7924 7.21429 29.7017 7.26538L10.4754 18.3635C10.3837 18.4177 10.3076 18.4947 10.2544 18.5871C10.2012 18.6794 10.1727 18.7838 10.1717 18.8904V41.0923C10.172 41.197 10.2 41.2997 10.2531 41.39C10.3061 41.4803 10.3822 41.5548 10.4736 41.606L15.7498 44.651C18.6092 46.0798 20.3604 44.396 20.3604 42.7048V20.7841C20.3604 20.6349 20.4197 20.4919 20.5252 20.3864C20.6307 20.2809 20.7738 20.2216 20.9229 20.2216H23.3604C23.5096 20.2216 23.6527 20.2809 23.7582 20.3864C23.8637 20.4919 23.9229 20.6349 23.9229 20.7841V42.7066C23.9229 46.5223 21.8454 48.7066 18.2267 48.7066C16.6655 48.7338 15.1288 48.3163 13.7961 47.5029L8.73919 44.6023C8.1253 44.2448 7.61591 43.7325 7.26189 43.1166C6.90788 42.5007 6.72161 41.8027 6.72169 41.0923V18.8904C6.71987 18.1789 6.90535 17.4794 7.25949 16.8623C7.61363 16.2452 8.12396 15.7322 8.73919 15.3748L27.9786 4.26726C28.5983 3.9282 29.2934 3.75049 29.9998 3.75049C30.7062 3.75049 31.4013 3.9282 32.0211 4.26726L51.2586 15.3748C51.8724 15.7316 52.3819 16.2431 52.7362 16.8584C53.0906 17.4736 53.2774 18.171 53.2779 18.881V41.0923C53.2769 41.8027 53.0899 42.5004 52.7357 43.1162C52.3814 43.7319 51.8722 44.2443 51.2586 44.6023L32.0211 55.7098C31.4065 56.0643 30.7093 56.2506 29.9998 56.2498Z" fill="black"/>
<path d="M26.3516 33.662C26.3516 33.5128 26.4108 33.3697 26.5163 33.2642C26.6218 33.1587 26.7649 33.0995 26.9141 33.0995H29.4022C29.5351 33.0999 29.6636 33.1474 29.7649 33.2336C29.8661 33.3197 29.9336 33.4389 29.9553 33.5701C30.3303 36.1032 31.4553 37.3801 36.5422 37.3801C40.5941 37.3801 42.3209 36.4632 42.3209 34.3126C42.3209 33.0732 41.8316 32.1526 35.5334 31.5357C30.2684 31.0145 27.0134 29.8482 27.0134 25.6407C27.0134 21.7595 30.2853 19.4438 35.7697 19.4438C41.9328 19.4438 44.9834 21.5832 45.3697 26.1732C45.3756 26.2499 45.3657 26.3269 45.3407 26.3995C45.3157 26.4722 45.276 26.539 45.2242 26.5957C45.1724 26.6525 45.1094 26.698 45.0393 26.7295C44.9692 26.761 44.8934 26.7778 44.8166 26.7788H42.3116C42.1859 26.7771 42.0644 26.7333 41.9666 26.6545C41.8687 26.5756 41.8 26.4663 41.7716 26.3438C41.1734 23.6795 39.7091 22.8282 35.7716 22.8282C31.3466 22.8282 30.8328 24.3695 30.8328 25.5245C30.8328 26.9232 31.4403 27.332 37.4141 28.1213C43.3259 28.9032 46.1347 30.0095 46.1347 34.1645C46.1347 38.357 42.6397 40.757 36.5441 40.757C28.1159 40.7682 26.3516 36.9038 26.3516 33.662Z" fill="black"/>
</svg>
