<svg width="60" height="63" viewBox="0 0 60 63" fill="none" xmlns="http://www.w3.org/2000/svg">
<path d="M21.9387 15.7313L23.732 15.158C25.4137 14.6213 27.2103 15.4897 27.9303 17.1863L29.3637 20.5663C29.987 22.038 29.6403 23.7697 28.507 24.8463L25.3487 27.843C25.5437 29.6364 26.147 31.4014 27.157 33.138C28.1161 34.8182 29.4026 36.2889 30.9403 37.463L34.7337 36.1964C36.1703 35.718 37.737 36.2697 38.617 37.5647L40.672 40.5814C41.697 42.088 41.512 44.1647 40.2403 45.4413L38.8787 46.8097C37.522 48.1714 35.5837 48.6664 33.792 48.1063C29.5587 46.7864 25.6703 42.868 22.1203 36.3514C18.5653 29.8247 17.3103 24.2847 18.357 19.738C18.797 17.8247 20.1587 16.2997 21.9387 15.7313Z" fill="#131F33"/>
</svg>
