<svg width="130" height="130" viewBox="0 0 130 130" fill="none" xmlns="http://www.w3.org/2000/svg">
<rect width="130" height="130" rx="65" fill="#163758"/>
<path d="M49.1025 30.5797L52.7917 29.3413C56.2512 28.1821 59.9473 30.0577 61.4285 33.7226L64.3771 41.0235C65.6594 44.2023 64.9463 47.9427 62.6148 50.2684L56.1175 56.7412C56.5187 60.6149 57.7598 64.4273 59.8376 68.1786C61.8107 71.8079 64.4572 74.9846 67.6206 77.5207L75.4242 74.7847C78.3797 73.7514 81.6026 74.9431 83.4129 77.7403L87.6404 84.2564C89.749 87.5108 89.3684 91.9965 86.7524 94.7541L83.9512 97.7097C81.1603 100.651 77.1728 101.72 73.487 100.511C64.7783 97.6593 56.7793 89.1956 49.4763 75.1195C42.163 61.0217 39.5812 49.0552 41.7344 39.2342C42.6396 35.1014 45.4408 31.8073 49.1025 30.5797Z" fill="white"/>
</svg>
