<svg width="60" height="64" viewBox="0 0 60 64" fill="none" xmlns="http://www.w3.org/2000/svg">
<path d="M29.6667 30.8333C28.5616 30.8333 27.5018 30.3943 26.7204 29.6129C25.939 28.8315 25.5 27.7717 25.5 26.6667C25.5 25.5616 25.939 24.5018 26.7204 23.7204C27.5018 22.939 28.5616 22.5 29.6667 22.5C30.7717 22.5 31.8315 22.939 32.6129 23.7204C33.3943 24.5018 33.8333 25.5616 33.8333 26.6667C33.8333 27.2138 33.7256 27.7557 33.5162 28.2612C33.3068 28.7667 32.9999 29.226 32.6129 29.6129C32.226 29.9999 31.7667 30.3068 31.2612 30.5162C30.7557 30.7256 30.2138 30.8333 29.6667 30.8333ZM29.6667 15C26.5725 15 23.605 16.2292 21.4171 18.4171C19.2292 20.605 18 23.5725 18 26.6667C18 35.4167 29.6667 48.3333 29.6667 48.3333C29.6667 48.3333 41.3333 35.4167 41.3333 26.6667C41.3333 23.5725 40.1042 20.605 37.9162 18.4171C35.7283 16.2292 32.7609 15 29.6667 15Z" fill="#131F33"/>
</svg>
